#!OML:ASF E:\Mandelcareful walks\Project 1\Capture day 1\Session 1\Subject1.ASF
:FULLY-SPECIFIED
:DEGREES
716
root -3.69235 15.1387 0.220703 168.844 77.637 161.077
lowerback 46.0414 2.40123 -1.29613
upperback 10.3932 3.7712 -5.34098
thorax -9.22191 2.7411 -6.94722
lowerneck -21.0407 13.7652 9.4994
upperneck 24.763 24.9097 -21.3467
head 16.979 9.27436 -4.74532
rclavicle 2.90226e-014 -3.65764e-014
rhumerus -11.7792 10.8538 -81.9588
rradius 69.2339
rwrist -16.4181
rhand -20.5424 -26.9314
rfingers 7.12502
rthumb 5.8162 -56.8316
lclavicle 2.90226e-014 -3.65764e-014
lhumerus -8.201 -12.4859 71.8193
lradius 58.2117
lwrist 21.2853
lhand -27.5018 -14.5781
lfingers 7.12502
lthumb -0.904783 15.3998
rfemur -36.603 -18.9007 10.468
rtibia 63.9774
rfoot -28.4156 -9.76243
rtoes -8.79243
lfemur -45.1213 17.478 -13.9443
ltibia 56.0591
lfoot -11.7609 5.12495
ltoes -11.9949
717
root -3.66512 15.1401 0.193611 169.458 76.4476 161.916
lowerback 46.4339 2.29022 -1.62424
upperback 10.5213 3.57348 -5.1948
thorax -9.20525 2.68039 -6.5442
lowerneck -20.9729 13.8832 9.33334
upperneck 24.2851 25.121 -21.6522
head 16.8196 9.35147 -4.76379
rclavicle -1.88845e-014 9.34288e-015
rhumerus -11.282 11.5816 -81.7039
rradius 69.101
rwrist -16.4994
rhand -20.6613 -26.4237
rfingers 7.12502
rthumb 5.70132 -56.327
lclavicle -1.88845e-014 9.34288e-015
lhumerus -8.25802 -11.5444 72.2218
lradius 57.7985
lwrist 20.9282
lhand -27.2952 -14.4386
lfingers 7.12502
lthumb -0.705228 15.5399
rfemur -35.7102 -19.8749 9.98747
rtibia 63.7743
rfoot -28.529 -9.83192
rtoes -9.07685
lfemur -45.0694 16.5174 -14.2425
ltibia 56.1043
lfoot -11.7373 4.95507
ltoes -11.7779
718
root -3.62409 15.1489 0.152988 169.936 75.4239 162.708
lowerback 46.7201 2.18478 -1.9322
upperback 10.6913 3.39987 -5.01605
thorax -9.10784 2.63054 -6.11834
lowerneck -21.0189 14.0222 9.06118
upperneck 23.9186 25.3732 -21.8245
head 16.7018 9.43279 -4.69699
rclavicle 4.17448e-014 -9.85972e-014
rhumerus -10.8863 12.3046 -81.4918
rradius 69.1264
rwrist -16.4298
rhand -20.5843 -26.3664
rfingers 7.12502
rthumb 5.77571 -56.2676
lclavicle 4.17448e-014 -9.85972e-014
lhumerus -8.53965 -10.3743 72.7604
lradius 57.6593
lwrist 20.4407
lhand -26.9763 -14.1923
lfingers 7.12502
lthumb -0.397245 15.7871
rfemur -34.6312 -20.8216 9.45671
rtibia 63.557
rfoot -28.7066 -9.78665
rtoes -9.4573
lfemur -44.7853 15.5228 -14.421
ltibia 56.2422
lfoot -12.0276 4.89379
ltoes -11.1842
719
root -3.58844 15.1549 0.118524 171.448 74.9283 164.257
lowerback 46.7436 2.2269 -2.10296
upperback 10.7399 3.41451 -4.86628
thorax -9.06399 2.64143 -5.87184
lowerneck -21.1428 14.1499 8.68686
upperneck 23.602 25.5723 -21.8238
head 16.555 9.49028 -4.55615
rclavicle 6.26172e-014 -3.33958e-014
rhumerus -10.4466 12.9843 -81.3239
rradius 69.2454
rwrist -16.5895
rhand -20.1253 -27.1483
rfingers 7.12502
rthumb 6.21886 -57.037
lclavicle 6.26172e-014 -3.33958e-014
lhumerus -8.86345 -9.55484 73.1298
lradius 57.5727
lwrist 20.242
lhand -26.8761 -13.6639
lfingers 7.12502
lthumb -0.3004 16.3156
rfemur -34.14 -21.2413 9.52553
rtibia 63.3736
rfoot -28.8187 -9.94745
rtoes -9.91366
lfemur -44.8633 15.0425 -14.2523
ltibia 56.4921
lfoot -12.3671 4.86497
ltoes -10.4436
720
root -3.58087 15.1393 0.113917 174.926 75.0549 167.311
lowerback 46.4075 2.56954 -2.2656
upperback 10.6388 3.74399 -4.60819
thorax -9.08291 2.75791 -5.63987
lowerneck -21.4881 14.2654 8.16589
upperneck 23.3532 25.7179 -21.6216
head 16.4061 9.50933 -4.31817
rclavicle -1.11319e-014 6.87795e-014
rhumerus -9.82264 13.5992 -81.2287
rradius 69.1367
rwrist -16.7347
rhand -19.581 -27.7919
rfingers 7.12502
rthumb 6.7443 -57.6645
lclavicle -1.11319e-014 6.87795e-014
lhumerus -9.0596 -8.97325 73.3493
lradius 57.4193
lwrist 20.1943
lhand -26.8791 -13.2842
lfingers 7.12502
lthumb -0.303332 16.6953
rfemur -34.7754 -20.7338 10.6674
rtibia 63.3383
rfoot -28.7884 -10.6199
rtoes -10.3245
lfemur -45.7646 15.3734 -13.5468
ltibia 56.8877
lfoot -12.3767 4.68364
ltoes -10.0682
721
root -3.54123 15.1366 0.0774304 175.757 74.604 167.961
lowerback 45.9621 2.59235 -2.57338
upperback 10.7661 3.68446 -4.49515
thorax -8.83873 2.73438 -5.30371
lowerneck -21.905 14.3844 7.57719
upperneck 23.0778 25.8302 -21.3226
head 16.2188 9.51613 -4.03865
rclavicle 0 5.07895e-014
rhumerus -9.30019 14.1111 -81.3058
rradius 69.0317
rwrist -16.4231
rhand -19.0423 -28.0821
rfingers 7.12502
rthumb 7.2643 -57.9374
lclavicle 0 5.07895e-014
lhumerus -9.23572 -8.27282 73.6437
lradius 57.1259
lwrist 19.9917
lhand -26.8641 -13.5391
lfingers 7.12502
lthumb -0.288837 16.4405
rfemur -34.5617 -21.0951 10.6161
rtibia 63.25
rfoot -28.8613 -10.8126
rtoes -11.0314
lfemur -46.0903 15.1001 -13.638
ltibia 57.2852
lfoot -12.7542 4.48529
ltoes -9.8711
722
root -3.51394 15.1301 0.0467559 176.658 74.1669 168.778
lowerback 45.777 2.62691 -2.8381
upperback 10.8339 3.65036 -4.33302
thorax -8.72735 2.71798 -4.96459
lowerneck -22.4919 14.4189 6.86242
upperneck 22.8598 25.8236 -20.897
head 16.0253 9.46368 -3.7214
rclavicle -1.68967e-014 -1.98785e-014
rhumerus -8.77031 14.6381 -81.181
rradius 69.0174
rwrist -16.3156
rhand -18.5797 -28.3408
rfingers 7.12502
rthumb 7.71083 -58.1802
lclavicle -1.68967e-014 -1.98785e-014
lhumerus -9.31828 -7.55221 74.034
lradius 56.6798
lwrist 19.7956
lhand -26.6175 -14.2503
lfingers 7.12502
lthumb -0.0506091 15.7294
rfemur -34.3805 -21.3685 10.6469
rtibia 63.2072
rfoot -28.8963 -11.0883
rtoes -11.859
lfemur -46.4168 14.8695 -13.6457
ltibia 57.6986
lfoot -13.0218 4.28002
ltoes -9.687
723
root -3.49185 15.1266 0.0141033 177.912 73.7546 170.001
lowerback 45.6533 2.68324 -2.68168
upperback 10.7766 3.78633 -4.31404
thorax -8.75084 2.77523 -5.08033
lowerneck -22.8396 14.231 6.73446
upperneck 22.8877 25.297 -20.3161
head 15.8591 9.26364 -3.60111
rclavicle -5.74488e-014 2.98177e-015
rhumerus -8.60527 14.6012 -81.1492
rradius 68.9904
rwrist -16.5763
rhand -18.7757 -28.1603
rfingers 7.12502
rthumb 7.5217 -58.0066
lclavicle -5.74488e-014 2.98177e-015
lhumerus -9.45437 -7.7341 74.2217
lradius 56.3153
lwrist 19.9769
lhand -26.5879 -14.2201
lfingers 7.12502
lthumb -0.0221161 15.7596
rfemur -34.1617 -21.6526 10.8036
rtibia 63.1262
rfoot -28.9252 -11.3108
rtoes -12.2308
lfemur -46.7029 14.5892 -13.4908
ltibia 58.0715
lfoot -13.1868 4.18369
ltoes -9.36423
724
root -3.47147 15.1251 -0.0249253 179.002 73.2712 171.034
lowerback 45.4625 2.62963 -2.5731
upperback 10.7115 3.76976 -4.238
thorax -8.77858 2.75739 -5.04073
lowerneck -23.1111 14.0327 6.53623
upperneck 22.8202 24.8145 -19.8601
head 15.666 9.07915 -3.50829
rclavicle -2.13694e-014 9.0447e-015
rhumerus -8.4639 14.7732 -81.1453
rradius 68.9941
rwrist -16.8337
rhand -18.787 -28.1751
rfingers 7.12502
rthumb 7.51076 -58.0218
lclavicle -2.13694e-014 9.0447e-015
lhumerus -9.75849 -7.73222 74.4692
lradius 56.0409
lwrist 20.0726
lhand -26.9355 -13.6484
lfingers 7.12502
lthumb -0.357792 16.331
rfemur -33.9401 -22.0026 10.8861
rtibia 63.0588
rfoot -28.9576 -11.4659
rtoes -11.9165
lfemur -47.0129 14.1572 -13.4029
ltibia 58.4301
lfoot -13.355 4.16929
ltoes -8.8828
725
root -3.45384 15.1214 -0.0665676 179.759 72.7355 171.726
lowerback 45.2024 2.59493 -2.4887
upperback 10.7064 3.78598 -4.10159
thorax -8.72059 2.75742 -4.9304
lowerneck -23.4914 13.705 6.28395
upperneck 22.7539 24.1866 -19.4535
head 15.4837 8.82035 -3.45976
rclavicle -2.78299e-015 6.61953e-014
rhumerus -8.42362 14.5981 -81.1864
rradius 69.1206
rwrist -16.8411
rhand -17.5508 -29.2354
rfingers 7.12502
rthumb 8.70388 -59.036
lclavicle -2.78299e-015 6.61953e-014
lhumerus -9.89 -7.68391 74.8408
lradius 55.4552
lwrist 19.8244
lhand -26.6836 -14.4757
lfingers 7.12502
lthumb -0.114492 15.504
rfemur -33.7308 -22.4016 10.8568
rtibia 62.995
rfoot -29.0217 -11.5358
rtoes -11.708
lfemur -47.3428 13.7176 -13.4475
ltibia 58.7636
lfoot -13.502 4.09857
ltoes -8.24553
726
root -3.43322 15.1183 -0.108759 180.457 72.3351 172.47
lowerback 45.412 2.26245 -2.01155
upperback 10.4802 3.51714 -4.44791
thorax -9.02808 2.63248 -5.45989
lowerneck -24.2754 13.3997 5.78229
upperneck 23.0398 23.3647 -18.0861
head 15.2866 8.49943 -3.03963
rclavicle -9.93923e-015 -1.24737e-014
rhumerus -8.47521 14.3966 -81.9344
rradius 69.0622
rwrist -16.7125
rhand -16.4789 -30.0721
rfingers 7.12502
rthumb 9.73813 -59.8269
lclavicle -9.93923e-015 -1.24737e-014
lhumerus -10.1465 -7.78081 74.5574
lradius 55.0297
lwrist 19.9855
lhand -26.558 -14.5164
lfingers 7.12502
lthumb 0.00682669 15.4633
rfemur -33.3854 -22.6757 10.8218
rtibia 62.9038
rfoot -29.1729 -11.4428
rtoes -11.1592
lfemur -47.4894 13.427 -13.4049
ltibia 59.0596
lfoot -13.6523 3.99404
ltoes -7.45985
